<?xml version="1.0" standalone="no"?><!DOCTYPE svg PUBLIC "-//W3C//DTD SVG 1.1//EN" "http://www.w3.org/Graphics/SVG/1.1/DTD/svg11.dtd"><svg xmlns="http://www.w3.org/2000/svg" class="blocklySvg" height="30px" version="1.1" width="75px"><defs><style type="text/css"><![CDATA[
.blocklySvg { overflow: hidden; background-color: rgb(255, 255, 255, 0.0); }
.blocklyPathLight { fill: none; stroke-width: 2px; stroke-linecap: round; }
.blocklyText { cursor: default; font-family: sans-serif; font-size: 11pt; fill: rgb(255, 255, 255); }]]></style></defs><g><rect fill-opacity="0" height="30" width="75" x="16" y="8" /><g class="blocklyDraggable" transform=""><path class="blocklyPathDark" d="m 0,8 A 8,8 0 0,1 8,0 H 15 l 6,4 3,0 6,-4 H 75 v 25 H 30 l -6,4 -3,0 -6,-4 H 8 a 8,8 0 0,1 -8,-8 z " fill="#5c3764" transform="translate(1, 1)" /><path class="blocklyPath" d="m 0,8 A 8,8 0 0,1 8,0 H 15 l 6,4 3,0 6,-4 H 75 v 25 H 30 l -6,4 -3,0 -6,-4 H 8 a 8,8 0 0,1 -8,-8 z " fill="#995ba6" /><path class="blocklyPathLight" d="m 1,7 A 7,7 0 0,1 8,1 H 15 l 6.5,4 2,0 6.5,-4 H 75 M 39,1 M 3.050252531694167,21.949747468305834 A 7,7 0 0,1 1,17 V 8 " stroke="#b88cc1" /><text class="blocklyText" transform="translate(10, 18)">UpCube</text></g></g></svg>